<svg id="Слой_1" data-name="Слой 1" xmlns="http://www.w3.org/2000/svg" viewBox="0 0 297.59 298.56"><defs><style>.cls-1{fill:#39f;}.cls-2{fill:none;}.cls-2,.cls-3{stroke:#000;stroke-miterlimit:10;}</style></defs><title>map</title><rect class="cls-1" x="88.85" y="148.11" width="60.62" height="118.79"/><polygon class="cls-1" points="149.47 32.34 88.85 148.11 149.47 148.11 149.47 32.34"/><path class="cls-1" d="M272.78,153.66l-.55,0c-6.64-.73-13.32.31-20,.15-7-.18-13.92.21-20.82-.47l-2.41.14c-2.91.15-5.82.28-8.73.31a18.51,18.51,0,0,1-2.6-.18,12.47,12.47,0,0,1-4.68.31c-8.17-1-19,2-27.29-.68a24.4,24.4,0,0,1-3.48.68,15.51,15.51,0,0,1-4.55-.41c-8.15.27-16.3.43-24.46.36a37.4,37.4,0,0,1,.16,5c0,.29-.2,4.13-.28,3.36a62.45,62.45,0,0,1,.27,7.69c.17,1,.31,2.07.39,3.17a16,16,0,0,1-.19,3.81,14.88,14.88,0,0,1-.36,9.89c.32,11.93,1.08,24.19-.25,36.08.18,3.18.15,6.36.17,9.54,0,2-.06,4.06,0,6.09,0,.85.32,5.9-.23,2a27.32,27.32,0,0,1,.21,6c.06,3.2-.27,6.4-.19,9.61.08,3.58.57,7.14.64,10.72a17.24,17.24,0,0,1-.39,3.91q.13,1.07.24,2.13H154A118.8,118.8,0,0,0,272.79,154C272.79,153.89,272.78,153.78,272.78,153.66Z" transform="translate(-4.53 -5.89)"/><line class="cls-2" y1="148.11" x2="297.59" y2="148.11"/><line class="cls-3" x1="149.47" x2="148.8" y2="298.55"/></svg>